<svg xmlns="http://www.w3.org/2000/svg" width="24" height="14" viewBox="0 0 24 14">
    <g fill="none" fill-rule="evenodd">
        <g fill="#9D9D9D" fill-rule="nonzero">
            <g>
                <g>
                    <path d="M11.667 0C7.312 0 3.363 2.379.45 6.243c-.238.316-.238.759 0 1.075 2.913 3.869 6.862 6.248 11.217 6.248 4.354 0 8.303-2.379 11.217-6.243.237-.317.237-.759 0-1.075C19.97 2.378 16.02 0 11.667 0zm.312 11.56c-2.89.181-5.277-2.198-5.096-5.089.15-2.384 2.084-4.316 4.471-4.465 2.89-.181 5.278 2.198 5.096 5.089-.154 2.379-2.089 4.31-4.471 4.464zm-.144-2.207C10.277 9.45 8.99 8.17 9.093 6.615c.08-1.285 1.124-2.323 2.41-2.407 1.558-.097 2.844 1.183 2.742 2.738-.084 1.29-1.128 2.328-2.41 2.407z" transform="translate(-164 -2836) translate(164 2833) translate(0 3)"/>
                </g>
            </g>
        </g>
    </g>
</svg>
